<svg xmlns="http://www.w3.org/2000/svg" width="70" height="63.189" viewBox="0 0 70 63.189">
  <path id="Union_14" data-name="Union 14" d="M-9704.861,83.431A5.189,5.189,0,0,1-9710,78.308V52.928a5.077,5.077,0,0,1,5.139-5h39.669a5.018,5.018,0,0,1,5.07,5V78.308a5.119,5.119,0,0,1-5.07,5.123Zm48.122-13.087V60.892L-9640,51.745V79.491Zm-22.5-33.266a9.1,9.1,0,0,1-2.956-12.52,9.1,9.1,0,0,1,12.521-2.956,9.1,9.1,0,0,1,2.956,12.52,9.091,9.091,0,0,1-7.747,4.316A9.051,9.051,0,0,1-9679.243,37.078Zm-26.817-7.736a5.791,5.791,0,0,1,5.782-5.782,5.791,5.791,0,0,1,5.782,5.782,5.78,5.78,0,0,1-5.782,5.782A5.791,5.791,0,0,1-9706.061,29.341Z" transform="translate(9710 -20.241)" fill="#254082"/>
</svg>
