<svg xmlns="http://www.w3.org/2000/svg" width="237.5" height="61" viewBox="0 0 237.5 61">
  <g id="Group_9627" data-name="Group 9627" transform="translate(-59.5 -24.5)">
    <path id="Union_1" data-name="Union 1" d="M-1990,30a30,30,0,0,1,30-30,29.864,29.864,0,0,1,14.018,3.472,20.094,20.094,0,0,0-8.553-.095,15.1,15.1,0,0,0-10.653,8.025,19.343,19.343,0,0,0-13.37,13.277h13.327c.07.146.141.291.217.435a20.855,20.855,0,0,0,4.924,6.022l.207.178c.405.382.828.767,1.29,1.175,1.087.962,2.2,1.907,3.285,2.83h-23.25a19.354,19.354,0,0,0,11.386,12.607c.481.775,1.065,1.683,1.525,2.3a16.316,16.316,0,0,0,9.117,6.2,19.115,19.115,0,0,0,4.842.614,21.463,21.463,0,0,0,4.157-.417,15.655,15.655,0,0,0,3.01-.92A29.865,29.865,0,0,1-1960,60,30,30,0,0,1-1990,30Zm34.115,23.952a13.786,13.786,0,0,1-7.716-5.26c-.838-1.119-2.264-3.542-2.264-3.542l6.877-4.763s2.389,4.334,4.972,5.369a5.517,5.517,0,0,0,6.057-.647,3.861,3.861,0,0,0,.869-5.44,14.983,14.983,0,0,0-3.12-3.354c-2.216-1.929-4.487-3.794-6.688-5.74q-.644-.57-1.271-1.16l-.239-.205a18.443,18.443,0,0,1-4.341-5.283,12.789,12.789,0,0,1-1.212-7.948,12.243,12.243,0,0,1,9.924-10.092,17.383,17.383,0,0,1,7.857.163,13.786,13.786,0,0,1,7.716,5.26c.838,1.119,2.265,3.542,2.265,3.542l-6.878,4.764a12.454,12.454,0,0,0-4.971-5.369,5.517,5.517,0,0,0-6.058.647,3.863,3.863,0,0,0-.869,5.44,15.065,15.065,0,0,0,3.12,3.354c2.216,1.929,4.488,3.793,6.688,5.74q.645.57,1.272,1.159l.239.206a18.391,18.391,0,0,1,4.341,5.283,12.782,12.782,0,0,1,1.213,7.948,12.244,12.244,0,0,1-9.925,10.091,18.83,18.83,0,0,1-3.665.371A16.554,16.554,0,0,1-1955.885,53.951Zm20.314-9.57a15.368,15.368,0,0,0-1.48-9.5,19.689,19.689,0,0,0-3.642-4.826c0-.02,0-.041,0-.06a19.238,19.238,0,0,0-1.641-7.789l8.9-6.162A29.871,29.871,0,0,1-1930,30a29.891,29.891,0,0,1-7.756,20.129A14.032,14.032,0,0,0-1935.572,44.382Z" transform="translate(2050 25)" fill="#003472" stroke="rgba(0,0,0,0)" stroke-miterlimit="10" stroke-width="1"/>
    <text id="Examination_System" data-name="Examination
System" transform="translate(140 51)" fill="#003472" font-size="24" font-family="Poppins-Bold, Poppins" font-weight="700"><tspan x="0" y="0">Examination</tspan><tspan font-family="Poppins-Medium, Poppins" font-weight="500"><tspan x="0" y="25">System</tspan></tspan></text>
  </g>
</svg>
